<svg xmlns="http://www.w3.org/2000/svg" viewBox="0 0 120 120" fill="none">
  <circle cx="60" cy="60" r="56" fill="#f0fdf4" stroke="#22c55e" stroke-width="3"/>
  <path d="M60 25c-8 0-15 12-15 28s7 28 15 28 15-12 15-28-7-28-15-28z" fill="#22c55e" opacity="0.3"/>
  <path d="M42 70c0 0 8-5 18-5s18 5 18 5v8c0 6-8 12-18 12s-18-6-18-12v-8z" fill="#22c55e"/>
  <path d="M60 30c-2 0-4 8-4 18s2 18 4 18 4-8 4-18-2-18-4-18z" fill="#16a34a"/>
  <path d="M55 35c-5 2-12 10-8 15s10-3 12-8c2-5 1-9-4-7z" fill="#4ade80"/>
  <path d="M65 35c5 2 12 10 8 15s-10-3-12-8c-2-5-1-9 4-7z" fill="#4ade80"/>
</svg>
